<?xml version="1.0" encoding="UTF-8" standalone="no"?>
<!DOCTYPE svg PUBLIC "-//W3C//DTD SVG 1.1//EN"
 "http://www.w3.org/Graphics/SVG/1.1/DTD/svg11.dtd">
<!-- Generated by graphviz version 2.42.4 (0)
 -->
<!-- Title: G Pages: 1 -->
<svg width="710pt" height="931pt"
 viewBox="0.00 0.00 710.32 931.32" xmlns="http://www.w3.org/2000/svg" xmlns:xlink="http://www.w3.org/1999/xlink">
<g id="graph0" class="graph" transform="scale(1 1) rotate(0) translate(20.16 911.16)">
<title>G</title>
<polygon fill="white" stroke="transparent" points="-20.16,20.16 -20.16,-911.16 690.16,-911.16 690.16,20.16 -20.16,20.16"/>
<text text-anchor="middle" x="335" y="-874.2" font-family="DejaVu Sans" font-size="16.00">01 &#160;/ &#160;A model is one component of a serving system</text>
<g id="clust1" class="cluster">
<title>cluster_service</title>
<path fill="white" stroke="#bacad8" d="M20,-84C20,-84 650,-84 650,-84 656,-84 662,-90 662,-96 662,-96 662,-845 662,-845 662,-851 656,-857 650,-857 650,-857 20,-857 20,-857 14,-857 8,-851 8,-845 8,-845 8,-96 8,-96 8,-90 14,-84 20,-84"/>
<text text-anchor="middle" x="335" y="-840.2" font-family="DejaVu Sans" font-size="16.00">SERVICE RESPONSIBILITIES &#160;/ &#160;conceptual boundaries, not process count</text>
</g>
<g id="clust2" class="cluster">
<title>cluster_model</title>
<path fill="#f5fbf9" stroke="#72ada4" d="M28,-252C28,-252 492,-252 492,-252 498,-252 504,-258 504,-264 504,-264 504,-573 504,-573 504,-579 498,-585 492,-585 492,-585 28,-585 28,-585 22,-585 16,-579 16,-573 16,-573 16,-264 16,-264 16,-258 22,-252 28,-252"/>
<text text-anchor="middle" x="260" y="-568.2" font-family="DejaVu Sans" font-size="16.00">NAIVE DECODER&#45;ONLY MODEL &#160;/ &#160;original lab simplification</text>
</g>
<!-- api -->
<g id="node1" class="node">
<title>api</title>
<path fill="#eff6fb" stroke="#536c83" stroke-width="1.2" d="M351,-823C351,-823 171,-823 171,-823 165,-823 159,-817 159,-811 159,-811 159,-791 159,-791 159,-785 165,-779 171,-779 171,-779 351,-779 351,-779 357,-779 363,-785 363,-791 363,-791 363,-811 363,-811 363,-817 357,-823 351,-823"/>
<text text-anchor="middle" x="261" y="-804.4" font-family="DejaVu Sans" font-size="12.00">API / request contract</text>
<text text-anchor="middle" x="261" y="-791.4" font-family="DejaVu Sans" font-size="12.00">Messages, parameters, errors</text>
</g>
<!-- render -->
<g id="node2" class="node">
<title>render</title>
<path fill="#eff6fb" stroke="#536c83" stroke-width="1.2" d="M360,-744C360,-744 162,-744 162,-744 156,-744 150,-738 150,-732 150,-732 150,-712 150,-712 150,-706 156,-700 162,-700 162,-700 360,-700 360,-700 366,-700 372,-706 372,-712 372,-712 372,-732 372,-732 372,-738 366,-744 360,-744"/>
<text text-anchor="middle" x="261" y="-725.4" font-family="DejaVu Sans" font-size="12.00">Prepare inputs</text>
<text text-anchor="middle" x="261" y="-712.4" font-family="DejaVu Sans" font-size="12.00">Template • tokenizer • processor</text>
</g>
<!-- api&#45;&gt;render -->
<g id="edge1" class="edge">
<title>api&#45;&gt;render</title>
<path fill="none" stroke="#536c83" d="M261,-778.96C261,-770.56 261,-760.75 261,-751.71"/>
<polygon fill="#536c83" stroke="#536c83" points="263.63,-751.52 261,-744.02 258.38,-751.52 263.63,-751.52"/>
</g>
<!-- sched -->
<g id="node3" class="node">
<title>sched</title>
<path fill="#eff6fb" stroke="#536c83" stroke-width="1.2" d="M374,-665C374,-665 148,-665 148,-665 142,-665 136,-659 136,-653 136,-653 136,-633 136,-633 136,-627 142,-621 148,-621 148,-621 374,-621 374,-621 380,-621 386,-627 386,-633 386,-633 386,-653 386,-653 386,-659 380,-665 374,-665"/>
<text text-anchor="middle" x="261" y="-646.4" font-family="DejaVu Sans" font-size="12.00">Organize execution</text>
<text text-anchor="middle" x="261" y="-633.4" font-family="DejaVu Sans" font-size="12.00">Requests • budgets • state ownership</text>
</g>
<!-- render&#45;&gt;sched -->
<g id="edge2" class="edge">
<title>render&#45;&gt;sched</title>
<path fill="none" stroke="#536c83" d="M261,-699.96C261,-691.56 261,-681.75 261,-672.71"/>
<polygon fill="#536c83" stroke="#536c83" points="263.63,-672.52 261,-665.02 258.38,-672.52 263.63,-672.52"/>
</g>
<!-- emb -->
<g id="node4" class="node">
<title>emb</title>
<path fill="#e6f5ee" stroke="#536c83" stroke-width="1.2" d="M351,-551C351,-551 171,-551 171,-551 165,-551 159,-545 159,-539 159,-539 159,-519 159,-519 159,-513 165,-507 171,-507 171,-507 351,-507 351,-507 357,-507 363,-513 363,-519 363,-519 363,-539 363,-539 363,-545 357,-551 351,-551"/>
<text text-anchor="middle" x="261" y="-532.4" font-family="DejaVu Sans" font-size="12.00">IDs + positions → embeddings</text>
<text text-anchor="middle" x="261" y="-519.4" font-family="DejaVu Sans" font-size="12.00">[B,T] → [B,T,D]</text>
</g>
<!-- sched&#45;&gt;emb -->
<g id="edge6" class="edge">
<title>sched&#45;&gt;emb</title>
<path fill="none" stroke="#536c83" d="M261,-620.93C261,-603.45 261,-578.39 261,-559.01"/>
<polygon fill="#536c83" stroke="#536c83" points="263.63,-558.85 261,-551.35 258.38,-558.85 263.63,-558.85"/>
<text text-anchor="middle" x="316.5" y="-596" font-family="DejaVu Sans" font-size="10.00">scheduled tensor work</text>
</g>
<!-- attn -->
<g id="node5" class="node">
<title>attn</title>
<path fill="#e6f5ee" stroke="#536c83" stroke-width="1.2" d="M345.5,-472C345.5,-472 176.5,-472 176.5,-472 170.5,-472 164.5,-466 164.5,-460 164.5,-460 164.5,-440 164.5,-440 164.5,-434 170.5,-428 176.5,-428 176.5,-428 345.5,-428 345.5,-428 351.5,-428 357.5,-434 357.5,-440 357.5,-440 357.5,-460 357.5,-460 357.5,-466 351.5,-472 345.5,-472"/>
<text text-anchor="middle" x="261" y="-453.4" font-family="DejaVu Sans" font-size="12.00">Causal Q/K/V attention</text>
<text text-anchor="middle" x="261" y="-440.4" font-family="DejaVu Sans" font-size="12.00">Future positions are masked</text>
</g>
<!-- emb&#45;&gt;attn -->
<g id="edge3" class="edge">
<title>emb&#45;&gt;attn</title>
<path fill="none" stroke="#536c83" d="M261,-506.96C261,-498.56 261,-488.75 261,-479.71"/>
<polygon fill="#536c83" stroke="#536c83" points="263.63,-479.52 261,-472.02 258.38,-479.52 263.63,-479.52"/>
</g>
<!-- mlp -->
<g id="node6" class="node">
<title>mlp</title>
<path fill="#e6f5ee" stroke="#536c83" stroke-width="1.2" d="M358,-383C358,-383 164,-383 164,-383 158,-383 152,-377 152,-371 152,-371 152,-351 152,-351 152,-345 158,-339 164,-339 164,-339 358,-339 358,-339 364,-339 370,-345 370,-351 370,-351 370,-371 370,-371 370,-377 364,-383 358,-383"/>
<text text-anchor="middle" x="261" y="-364.4" font-family="DejaVu Sans" font-size="12.00">Residuals + normalization + FFN</text>
<text text-anchor="middle" x="261" y="-351.4" font-family="DejaVu Sans" font-size="12.00">Repeat decoder blocks</text>
</g>
<!-- attn&#45;&gt;mlp -->
<g id="edge4" class="edge">
<title>attn&#45;&gt;mlp</title>
<path fill="none" stroke="#536c83" d="M261,-427.94C261,-416.8 261,-402.96 261,-390.84"/>
<polygon fill="#536c83" stroke="#536c83" points="263.63,-390.67 261,-383.17 258.38,-390.67 263.63,-390.67"/>
</g>
<!-- logits -->
<g id="node7" class="node">
<title>logits</title>
<path fill="#e6f5ee" stroke="#536c83" stroke-width="1.2" d="M326,-304C326,-304 196,-304 196,-304 190,-304 184,-298 184,-292 184,-292 184,-272 184,-272 184,-266 190,-260 196,-260 196,-260 326,-260 326,-260 332,-260 338,-266 338,-272 338,-272 338,-292 338,-292 338,-298 332,-304 326,-304"/>
<text text-anchor="middle" x="261" y="-285.4" font-family="DejaVu Sans" font-size="12.00">Vocabulary projection</text>
<text text-anchor="middle" x="261" y="-272.4" font-family="DejaVu Sans" font-size="12.00">Logits [B,T,V]</text>
</g>
<!-- mlp&#45;&gt;logits -->
<g id="edge5" class="edge">
<title>mlp&#45;&gt;logits</title>
<path fill="none" stroke="#536c83" d="M261,-338.96C261,-330.56 261,-320.75 261,-311.71"/>
<polygon fill="#536c83" stroke="#536c83" points="263.63,-311.52 261,-304.02 258.38,-311.52 263.63,-311.52"/>
</g>
<!-- select -->
<g id="node8" class="node">
<title>select</title>
<path fill="#eff6fb" stroke="#536c83" stroke-width="1.2" d="M362,-215C362,-215 160,-215 160,-215 154,-215 148,-209 148,-203 148,-203 148,-183 148,-183 148,-177 154,-171 160,-171 160,-171 362,-171 362,-171 368,-171 374,-177 374,-183 374,-183 374,-203 374,-203 374,-209 368,-215 362,-215"/>
<text text-anchor="middle" x="261" y="-196.4" font-family="DejaVu Sans" font-size="12.00">Choose next token</text>
<text text-anchor="middle" x="261" y="-183.4" font-family="DejaVu Sans" font-size="12.00">Sampling policy + stop conditions</text>
</g>
<!-- logits&#45;&gt;select -->
<g id="edge7" class="edge">
<title>logits&#45;&gt;select</title>
<path fill="none" stroke="#536c83" d="M261,-259.94C261,-248.8 261,-234.96 261,-222.84"/>
<polygon fill="#536c83" stroke="#536c83" points="263.63,-222.67 261,-215.17 258.38,-222.67 263.63,-222.67"/>
<text text-anchor="middle" x="307" y="-235" font-family="DejaVu Sans" font-size="10.00">last relevant logits</text>
</g>
<!-- select&#45;&gt;sched -->
<g id="edge9" class="edge">
<title>select&#45;&gt;sched</title>
<path fill="none" stroke="#536c83" stroke-dasharray="5,2" d="M374.18,-206.74C431.1,-215.73 491.66,-230.13 509,-252 562.77,-319.8 537.82,-547.85 508,-585 492.64,-604.14 443.79,-617.42 393.55,-626.31"/>
<polygon fill="#536c83" stroke="#536c83" points="393.07,-623.73 386.13,-627.59 393.96,-628.9 393.07,-623.73"/>
<text text-anchor="middle" x="600" y="-403" font-family="DejaVu Sans" font-size="10.00">continue with new token</text>
</g>
<!-- output -->
<g id="node9" class="node">
<title>output</title>
<path fill="#eff6fb" stroke="#536c83" stroke-width="1.2" d="M350,-136C350,-136 172,-136 172,-136 166,-136 160,-130 160,-124 160,-124 160,-104 160,-104 160,-98 166,-92 172,-92 172,-92 350,-92 350,-92 356,-92 362,-98 362,-104 362,-104 362,-124 362,-124 362,-130 356,-136 350,-136"/>
<text text-anchor="middle" x="261" y="-117.4" font-family="DejaVu Sans" font-size="12.00">Return the result</text>
<text text-anchor="middle" x="261" y="-104.4" font-family="DejaVu Sans" font-size="12.00">Detokenize • format • stream</text>
</g>
<!-- select&#45;&gt;output -->
<g id="edge8" class="edge">
<title>select&#45;&gt;output</title>
<path fill="none" stroke="#536c83" d="M261,-170.96C261,-162.56 261,-152.75 261,-143.71"/>
<polygon fill="#536c83" stroke="#536c83" points="263.63,-143.52 261,-136.02 258.38,-143.52 263.63,-143.52"/>
</g>
<!-- origin -->
<g id="node10" class="node">
<title>origin</title>
<polygon fill="#fff7e5" stroke="#536c83" stroke-width="1.2" points="437,-57 79,-57 79,0 443,0 443,-51 437,-57"/>
<polyline fill="none" stroke="#536c83" stroke-width="1.2" points="437,-57 437,-51 "/>
<polyline fill="none" stroke="#536c83" stroke-width="1.2" points="443,-51 437,-51 "/>
<text text-anchor="middle" x="261" y="-38.4" font-family="DejaVu Sans" font-size="12.00">2017 Transformer: encoder + decoder + cross&#45;attention.</text>
<text text-anchor="middle" x="261" y="-25.4" font-family="DejaVu Sans" font-size="12.00">This lab chooses a smaller decoder&#45;only path.</text>
<text text-anchor="middle" x="261" y="-12.4" font-family="DejaVu Sans" font-size="12.00">Random&#45;weight logits are not a language&#45;quality result.</text>
</g>
<!-- output&#45;&gt;origin -->
</g>
</svg>
